<svg width="21" height="25" viewBox="0 0 25 25" fill="white" xmlns="http://www.w3.org/2000/svg">
<path d="M9.70312 1.61133C9.70312 1.23633 10.0781 0.861328 10.4531 0.861328C10.875 0.861328 11.25 1.23633 11.25 1.61133V2.4082C15 2.7832 18 5.9707 18 9.86133V11.2676C18 13.2832 18.7969 15.252 20.25 16.7051L20.3906 16.8457C20.7656 17.2207 21 17.7363 21 18.2988C21 19.4707 20.0625 20.3613 18.8906 20.3613H2.0625C0.890625 20.3613 0 19.4707 0 18.2988C0 17.7363 0.1875 17.2207 0.5625 16.8457L0.703125 16.7051C2.15625 15.252 3 13.2832 3 11.2676V9.86133C3 5.9707 5.95312 2.7832 9.75 2.4082L9.70312 1.61133ZM10.4531 3.86133C7.17188 3.86133 4.45312 6.58008 4.45312 9.86133V11.2676C4.45312 13.7051 3.51562 16.0488 1.78125 17.7832L1.64062 17.877C1.54688 18.0176 1.45312 18.1582 1.45312 18.2988C1.45312 18.627 1.73438 18.8613 2.0625 18.8613H18.8906C19.2188 18.8613 19.5 18.627 19.5 18.2988C19.5 18.1582 19.4062 18.0176 19.3125 17.877L19.1719 17.7832C17.4375 16.0488 16.5 13.7051 16.5 11.2676V9.86133C16.5 6.58008 13.7812 3.86133 10.4531 3.86133ZM10.4531 23.3613C11.1094 23.3613 11.6719 22.9863 11.9062 22.377C12.0469 22.002 12.4688 21.7676 12.8438 21.9082C13.2188 22.0488 13.4531 22.4707 13.3125 22.8926C12.8906 24.0645 11.7656 24.8613 10.4531 24.8613C9.1875 24.8613 8.0625 24.0645 7.64062 22.8926C7.5 22.4707 7.73438 22.0488 8.10938 21.9082C8.48438 21.7676 8.90625 22.002 9.04688 22.377C9.28125 22.9863 9.84375 23.3613 10.4531 23.3613Z" fill="#212121"/>
</svg>
